<!DOCTYPE svg PUBLIC "-//W3C//DTD SVG 1.1//EN" "http://www.w3.org/Graphics/SVG/1.1/DTD/svg11.dtd">

<!-- Uploaded to: SVG Repo, www.svgrepo.com, Transformed by: SVG Repo Mixer Tools -->
<svg fill="rgba(0, 0, 0, 1.00)" height="800px" width="800px" version="1.1" id="Layer_1" xmlns="http://www.w3.org/2000/svg" xmlns:xlink="http://www.w3.org/1999/xlink" viewBox="0 0 512 512" xml:space="preserve" stroke="rgba(255, 255, 255, 1.00)">

<g id="SVGRepo_bgCarrier" stroke-width="0"/>

<g id="SVGRepo_tracerCarrier" stroke-linecap="round" stroke-linejoin="round"/>

<g id="SVGRepo_iconCarrier"> <g> <g> <path d="M491.243,304.432h-7.878c-8.098-88.411-67.383-164.919-151.257-194.559V76.108c0-11.463-9.293-20.757-20.757-20.757 H200.649c-11.463,0-20.757,9.293-20.757,20.757v33.766C96.018,139.513,36.733,216.021,28.635,304.432h-7.878 C9.294,304.432,0,313.726,0,325.189v110.703c0,11.463,9.294,20.757,20.757,20.757h470.486c11.463,0,20.757-9.294,20.757-20.757 V325.189C512,313.726,502.707,304.432,491.243,304.432z M332.108,154.533c60.103,26.844,102.151,84.094,109.533,149.9H332.108 V154.533z M221.405,96.865h69.189v207.568h-69.189V96.865z M179.892,154.533v149.9H70.358 C77.741,238.627,119.789,181.377,179.892,154.533z M470.487,415.135H41.513v-69.189h159.135h110.703h159.135V415.135z"/> </g> </g> </g>

</svg>